<?xml version="1.0" encoding="UTF-8"?>
<svg id="Calque_2" data-name="Calque 2" xmlns="http://www.w3.org/2000/svg" viewBox="0 0 342.87 178.98">
  <defs>
    <style>
      .cls-1 {
        opacity: .59;
      }
    </style>
  </defs>
  <g id="Calque_2-2" data-name="Calque 2">
    <g>
      <path d="M255.3,53.35h-1.06c.17,0,.35,0,.53,0,.17,0,.36,0,.53,0Z"/>
      <path d="M255.3,53.35h-1.06c.17,0,.35,0,.53,0,.17,0,.36,0,.53,0Z"/>
      <path class="cls-1" d="M237.27,148.86v.38h-2.4c.81-.11,1.61-.23,2.4-.38Z"/>
      <g>
        <path d="M296.38,70.35c0,.94-.04,1.9-.11,2.86-.17-4.44-.59-10.46-1.21-12.81,.06,.18,.11,.35,.17,.53,.75,3,1.15,6.17,1.15,9.42Z"/>
        <path d="M237.27,148.86v.38h-2.4c.81-.11,1.61-.23,2.4-.38Z"/>
        <path d="M296.38,70.35c0,.94-.04,1.9-.11,2.86-.17-4.44-.59-10.46-1.21-12.81,.06,.18,.11,.35,.17,.53,.75,3,1.15,6.17,1.15,9.42Z"/>
      </g>
      <path d="M280.94,25.5c-3.04-1.38-5.81-1.97-9.27-1.97H88.95l-11.25,92.41-17.49,17.71h58.13l-2.33,20.79h122.4c21.02,0,41.03-9.94,53.53-26.59,8.32-11.09,13.77-23.41,16.19-36.63,7.86-42.82-13.66-59.55-27.19-65.72Zm26.48,65.59c-2.4,13.1-7.81,25.32-16.06,36.32-12.36,16.47-32.16,26.3-52.95,26.3H116.83l2.33-20.79H61.96l16.35-16.55,.08-.09,11.21-92.02h182.07c3.35,0,6.03,.57,8.97,1.9,11.36,5.18,28.44,17.94,28.44,47.8,0,5.18-.51,10.87-1.66,17.13Z"/>
      <g>
        <path d="M342.87,77.74c-2.42-2.84-4.95-6.68-6.27-8.77h0c-1.31-40.37-25.8-61.08-36.95-66.17-4.25-1.94-8.29-2.8-13.1-2.8H67.54l-11.83,104.69L0,158.26H89.69l-2.74,20.72H236.59c26.16,0,61.9-18.16,78.04-39.66,5.13-6.84,9.38-14.06,12.71-21.61,3.34-7.55,5.77-15.43,7.26-23.59,.42-2.3,.78-4.56,1.06-6.77v.54s3.71-6.12,7.21-10.15Zm-19.74,14.27c-2.66,14.53-8.66,28.09-17.83,40.31-13.75,18.32-46.5,35-68.71,35H100.26l2.73-20.72H28.95l37.88-36.42L77.96,11.66h208.59c3.14,0,5.53,.51,8.26,1.75,10.23,4.67,37.4,29.11,28.32,78.6Z"/>
        <path d="M295.23,60.93c.75,3,1.15,6.17,1.15,9.42,0,.94-.04,1.9-.11,2.86-.17-4.44-.59-10.46-1.21-12.81,.06,.18,.11,.35,.17,.53-.05-.23-.11-.47-.17-.7,0-.02-.01-.03-.02-.04-1.43-4.12-3.25-8.06-5.41-11.78-6.51-9.47-17.13-15.66-29.09-15.66-.17,0-.36,0-.53,.01-.32,0-.64,.02-.96,.02-.65,.03-1.3,.07-1.95,.14h-77.35l-2.33,20.43-1.61,14.1-4.61,40.71h20.44l4.61-40.71,1.61-14.1h56.38c.17,0,.35,0,.53,0,.17,0,.36,0,.53,0h6.37v-.13c4.28,.34,8.08,2.63,10.69,6.09,1.47,1.96,2.56,4.29,3.14,6.84,1.84,5.03,2.84,17.33,2.84,22.99,0,9.99-3.13,18.08-8.48,24.37-7.05,8.32-17.97,13.45-30.6,15.61h-90.8l.59-6.87,3.97-34.36,2.33-20.44,1.61-14.1,2.34-20.43h-60.99l-2.33,20.43-1.61,14.1-2.33,20.44-3.33,26.77s-3.7,14.11-12.44,14.11h31.26l4.95-40.88h20.1l-3.97,34.36-3.08,27.31h115.12c.8-.11,1.6-.23,2.4-.38,31.61-5.57,55.7-33.55,55.7-66.74,0-7.52-1.24-14.75-3.52-21.51Zm-180.42,6.52l1.61-14.1h20.1l-1.61,14.1h-20.1Zm122.46,81.79h-2.4c.81-.11,1.61-.23,2.4-.38v.38Z"/>
      </g>
    </g>
  </g>
</svg>